<?xml version="1.0" encoding="utf-8"?>
<!-- Generator: Adobe Illustrator 22.0.1, SVG Export Plug-In . SVG Version: 6.00 Build 0)  -->
<svg version="1.1" xmlns="http://www.w3.org/2000/svg" xmlns:xlink="http://www.w3.org/1999/xlink" x="0px" y="0px"
	 viewBox="0 0 454.7 101.5" style="enable-background:new 0 0 454.7 101.5;" xml:space="preserve">
<style type="text/css">
	.st0{fill:none;stroke:#D82117;stroke-miterlimit:10;}
	.st1{fill:#16566F;stroke:#16566F;stroke-miterlimit:10;}
	.st2{fill:#16566F;}
	.st3{fill:none;stroke:#16566F;stroke-miterlimit:10;}
	.st4{fill:#474747;}
	.st5{fill:#FFFFFF;}
	.st6{display:none;}
</style>
<g id="圖層_1">
</g>
<g id="圖層_4">
	<g>
		<path class="st2" d="M289,33.2h-17.7c-3.6,0-6.5,2.9-6.5,6.5v0c0,3.6,2.9,6.5,6.5,6.5h15.8c1.6,0,2.9,0.4,3.7,1.1
			c0.8,0.7,1.2,1.7,1.2,2.9c0,1.2-0.4,2.2-1.2,2.9c-0.8,0.8-2,1.1-3.7,1.1h-15.8c-3.6,0-6.5,2.9-6.5,6.5v2.1c0,3.6,2.9,6.5,6.5,6.5
			h18.5c1.7,0,3,0.4,3.8,1.2c0.9,0.8,1.3,1.8,1.3,3.1c0,1.3-0.4,2.3-1.3,3.1c-0.9,0.8-2.1,1.2-3.8,1.2h-29.2c-2.3,0-4-0.5-5-1.6
			c-1-1-1.5-2.7-1.5-5V31.5c0-1.5,0.2-2.8,0.7-3.8c0.5-1,1.2-1.7,2.2-2.1c1-0.4,2.2-0.7,3.7-0.7H289c1.7,0,3,0.4,3.8,1.1
			s1.2,1.8,1.2,3c0,1.3-0.4,2.3-1.2,3C292,32.8,290.7,33.2,289,33.2z"/>
	</g>
	<g>
		<path class="st2" d="M309.2,24.7h24.1c2.3,0,4,0.4,5,1.1c1,0.7,1.6,1.9,1.6,3.6c0,1-0.6,2.4-1.8,4c-1.2,1.7-2.6,3.5-4.2,5.5
			c-1.6,2-3.2,4.5-4.8,7.5c-1.7,3-3.2,6.6-4.5,11c-0.6,1.9-1,3.5-1.2,4.7c-0.2,1.3-0.5,2.9-0.8,4.9c-0.3,2-0.5,3.5-0.8,4.6
			c-0.5,2.5-1.2,4.2-2.2,5.1c-0.9,1-2.2,1.4-3.7,1.4c-1.5,0-2.7-0.5-3.5-1.5c-0.9-1-1.3-2.5-1.3-4.5c0-1.5,0.3-3.6,1-6.3
			c0.7-2.7,1.7-5.8,3.2-9.5c1.5-3.7,3.3-7.5,5.5-11.4c1-1.7,2.1-3.5,3.2-5.2c1.8-2.7-0.1-6.4-3.4-6.4h-11.3c-2,0-3.5-0.4-4.5-1.1
			c-1-0.7-1.5-1.9-1.5-3.5c0-1.7,0.5-2.7,1.6-3.2C305.9,25,307.3,24.7,309.2,24.7z"/>
	</g>
	<g>
		<path class="st2" d="M368.1,56.9h-5.4c-2.4,0-4.4,2-4.4,4.4v10.6c0,2.1-0.5,3.8-1.5,4.9c-1,1.1-2.3,1.7-3.8,1.7
			c-1.6,0-2.9-0.5-3.9-1.6c-1-1.1-1.5-2.7-1.5-4.8V31.1c0-2.4,0.5-4.1,1.6-5.1s2.8-1.5,5.2-1.5h13.8c4.1,0,7.2,0.3,9.4,0.9
			c2.2,0.6,4,1.6,5.6,3c1.6,1.4,2.8,3.1,3.6,5.1c0.8,2,1.2,4.3,1.2,6.8c0,5.4-1.7,9.5-5,12.3C379.6,55.5,374.7,56.9,368.1,56.9z
			 M365.5,32.5h-2.6c-2.6,0-4.6,2.1-4.6,4.6v7.2c0,2.4,2,4.4,4.4,4.4h2.8c2.5,0,4.6-0.3,6.3-0.8c1.7-0.5,3-1.4,3.9-2.6
			c0.9-1.2,1.3-2.8,1.3-4.7c0-2.3-0.7-4.2-2.1-5.7C373.4,33.3,370.3,32.5,365.5,32.5z"/>
	</g>
	<g>
		<path class="st2" d="M410.9,30.5l18.5,28.1c0.6,1,2.1,0.5,2.1-0.6V30.2c0-2,0.4-3.6,1.3-4.6c0.9-1,2.1-1.5,3.6-1.5
			c1.5,0,2.8,0.5,3.7,1.5c0.9,1,1.3,2.6,1.3,4.6v41.7c0,4.7-1.9,7-5.8,7c-1,0-1.8-0.1-2.6-0.4c-0.8-0.3-1.5-0.7-2.2-1.3
			c-0.7-0.6-1.3-1.3-1.9-2.1c-0.6-0.8-1.2-1.6-1.7-2.5l-16.5-25.3c-1.1-1.6-3.6-0.9-3.6,1.1v24.4c0,2-0.5,3.6-1.4,4.6
			c-0.9,1-2.1,1.6-3.6,1.6c-1.5,0-2.7-0.5-3.7-1.6c-0.9-1-1.4-2.6-1.4-4.6V31.8c0-1.7,0.2-3.1,0.6-4.1c0.5-1.1,1.2-2,2.3-2.7
			c1.1-0.7,2.2-1,3.4-1c1,0,1.8,0.2,2.5,0.5c0.7,0.3,1.3,0.7,1.8,1.3c0.5,0.5,1,1.2,1.6,2.1C409.8,28.7,410.3,29.6,410.9,30.5z"/>
	</g>
	<g>
		<g>
			<circle class="st2" cx="165.4" cy="47.1" r="5.4"/>
		</g>
		<g>
			<path class="st2" d="M243.5,51.1c-0.4,1.7-1.3,3-2.1,2.9c-0.1,0-0.2-0.1-0.3-0.1c-0.5-0.4-0.6-1.7-0.3-3.2
				c0.4-1.5,1.1-2.7,1.8-2.9c0.1,0,0.2-0.1,0.3,0C243.7,48,243.9,49.4,243.5,51.1z"/>
			<path class="st2" d="M241.8,54.5c-0.2,0.1-0.4,0.1-0.5,0c-0.2,0-0.4-0.1-0.5-0.2c-0.8-0.6-0.7-2.3-0.4-3.6c0.3-1.3,1-2.9,2.1-3.2
				c0.2-0.1,0.4-0.1,0.6-0.1c0.2,0,0.5,0.1,0.7,0.5c0.5,0.6,0.5,1.9,0.2,3.4c-0.4,1.4-1,2.6-1.8,3.1
				C242.1,54.4,241.9,54.5,241.8,54.5z M242.8,48.3c-0.4,0.1-1.1,1-1.4,2.5c-0.4,1.4-0.2,2.5,0.1,2.7c0.2,0,1-0.8,1.5-2.5l0,0
				C243.4,49.4,243.1,48.4,242.8,48.3z"/>
		</g>
		<g>
			<path class="st2" d="M241.2,54.5l-18.1-7.9c-0.4-0.2-0.8-0.2-1.2-0.1l-22.2,4.7l-0.2-1l22.2-4.7c0.6-0.1,1.2-0.1,1.8,0.2
				l18.1,7.9L241.2,54.5z"/>
		</g>
		<g>
			<path class="st2" d="M243.3,48.5L225,40.2c-0.4-0.2-0.9-0.2-1.3-0.2l-24.1,4.7l-0.2-1l24.1-4.7c0.6-0.1,1.3,0,1.9,0.2l18.2,8.3
				L243.3,48.5z"/>
		</g>
		<path class="st1" d="M200.6,50.6c-0.3,0-18,3.6-18,3.6c2.8-4.9,7.3-7.3,11.2-8.6c3.8-1.2,6.9-1.3,7.4-1.7c0.1,0,0.1-0.1,0.1-0.1
			c-0.1-2.6-5.7-5.8-5.7-5.8s-31.7-22-41.1-27c-9.4-4.9-28.2-4.4-35-4.4c-0.1,0-0.1,0-0.2,0c0,0-0.1,0-0.1,0c-0.1,0-0.3,0-0.4,0
			c-0.1,0-0.1,0-0.2,0c-9,1.1-15.9,20.9-15.5,45.1c0.5,24.7,8.4,44.7,17.8,44.5c3.7,0.5,8.4-0.6,10.5-0.9
			c46.3-7.7,68.6-40.7,68.6-40.7S202.7,52.3,200.6,50.6z M178.9,43.4c-0.4,5.2-4.9,9.3-10.1,9.2c-5.6-0.1-10-4.9-9.7-10.4
			c0.3-5.5,4.9-9.7,10.4-9.5C175.1,32.9,179.4,37.7,178.9,43.4z"/>
		<path class="st1" d="M97.1,51.7c0-16.6,4-31.7,10.5-42.8c1.3-2.3-0.5-5-3.1-4.6l-23.3,4L78,42.6l-24.2-2.2l2.5-27.7l-8.7,1.5
			c0,0-25,4-25.3,4c-8.5,0-15.5,15.1-15.5,33.6s6.9,33.6,15.5,33.6c0,0,0,0,0,0L44.4,89l59.8,9.6c2.6,0.4,4.4-2.3,3.1-4.6
			C101,83,97.1,68.1,97.1,51.7z"/>
		<polygon class="st5" points="78,42.6 81.2,8.4 56.4,12.7 53.8,40.4 		"/>
	</g>
</g>
<g id="圖層_3" class="st6">
</g>
</svg>
