<?xml version="1.0" encoding="utf-8"?>
<!-- Generator: Adobe Illustrator 22.0.1, SVG Export Plug-In . SVG Version: 6.00 Build 0)  -->
<svg version="1.1" xmlns="http://www.w3.org/2000/svg" xmlns:xlink="http://www.w3.org/1999/xlink" x="0px" y="0px"
	 viewBox="0 0 250.2 104.5" style="enable-background:new 0 0 250.2 104.5;" xml:space="preserve">
<style type="text/css">
	.st0{fill:none;stroke:#D82117;stroke-miterlimit:10;}
	.st1{fill:#16566F;stroke:#16566F;stroke-miterlimit:10;}
	.st2{fill:#16566F;}
	.st3{fill:none;stroke:#16566F;stroke-miterlimit:10;}
	.st4{fill:#474747;}
	.st5{fill:#FFFFFF;}
	.st6{display:none;}
</style>
<g id="圖層_1">
</g>
<g id="圖層_4">
	<g>
		<g>
			<circle class="st2" cx="165.4" cy="46.3" r="5.4"/>
		</g>
		<g>
			<path class="st2" d="M243.5,50.3c-0.4,1.7-1.3,3-2.1,2.9c-0.1,0-0.2-0.1-0.3-0.1c-0.5-0.4-0.6-1.7-0.3-3.2
				c0.4-1.5,1.1-2.7,1.8-2.9c0.1,0,0.2-0.1,0.3,0C243.7,47.2,243.9,48.6,243.5,50.3z"/>
			<path class="st2" d="M241.8,53.7c-0.2,0.1-0.4,0.1-0.5,0c-0.2,0-0.4-0.1-0.5-0.2c-0.8-0.6-0.7-2.3-0.4-3.6c0.3-1.3,1-2.9,2.1-3.2
				c0.2-0.1,0.4-0.1,0.6-0.1c0.2,0,0.5,0.1,0.7,0.5c0.5,0.6,0.5,1.9,0.2,3.4c-0.4,1.4-1,2.6-1.8,3.1
				C242.1,53.6,241.9,53.7,241.8,53.7z M242.8,47.5c-0.4,0.1-1.1,1-1.4,2.5c-0.4,1.4-0.2,2.5,0.1,2.7c0.2,0,1-0.8,1.5-2.5l0,0
				C243.4,48.6,243.1,47.6,242.8,47.5z"/>
		</g>
		<g>
			<path class="st2" d="M241.2,53.7l-18.1-7.9c-0.4-0.2-0.8-0.2-1.2-0.1l-22.2,4.7l-0.2-1l22.2-4.7c0.6-0.1,1.2-0.1,1.8,0.2
				l18.1,7.9L241.2,53.7z"/>
		</g>
		<g>
			<path class="st2" d="M243.3,47.7L225,39.4c-0.4-0.2-0.9-0.2-1.3-0.2L199.6,44l-0.2-1l24.1-4.7c0.6-0.1,1.3,0,1.9,0.2l18.2,8.3
				L243.3,47.7z"/>
		</g>
		<path class="st1" d="M200.6,49.8c-0.3,0-18,3.6-18,3.6c2.8-4.9,7.3-7.3,11.2-8.6c3.8-1.2,6.9-1.3,7.4-1.7c0.1,0,0.1-0.1,0.1-0.1
			c-0.1-2.6-5.7-5.8-5.7-5.8s-31.7-22-41.1-27c-9.4-4.9-28.2-4.4-35-4.4c-0.1,0-0.1,0-0.2,0c0,0-0.1,0-0.1,0c-0.1,0-0.3,0-0.4,0
			c-0.1,0-0.1,0-0.2,0c-9,1.1-15.9,20.9-15.5,45.1c0.5,24.7,8.4,44.7,17.8,44.5c3.7,0.5,8.4-0.6,10.5-0.9
			c46.3-7.7,68.6-40.7,68.6-40.7S202.7,51.5,200.6,49.8z M178.9,42.6c-0.4,5.2-4.9,9.3-10.1,9.2c-5.6-0.1-10-4.9-9.7-10.4
			c0.3-5.5,4.9-9.7,10.4-9.5C175.1,32.1,179.4,36.9,178.9,42.6z"/>
		<path class="st1" d="M97.1,50.9c0-16.6,4-31.7,10.5-42.8c1.3-2.3-0.5-5-3.1-4.6l-23.3,4L78,41.8l-24.2-2.2l2.5-27.7l-8.7,1.5
			c0,0-25,4-25.3,4C13.8,17.3,6.9,32.4,6.9,51s6.9,33.6,15.5,33.6c0,0,0,0,0,0l22.1,3.6l59.8,9.6c2.6,0.4,4.4-2.3,3.1-4.6
			C101,82.2,97.1,67.3,97.1,50.9z"/>
		<polygon class="st5" points="78,41.8 81.2,7.6 56.4,11.9 53.8,39.6 		"/>
	</g>
</g>
<g id="圖層_3" class="st6">
</g>
</svg>
