<?xml version="1.0" encoding="utf-8"?>
<!-- Generator: Adobe Illustrator 22.0.1, SVG Export Plug-In . SVG Version: 6.00 Build 0)  -->
<svg version="1.1" xmlns="http://www.w3.org/2000/svg" xmlns:xlink="http://www.w3.org/1999/xlink" x="0px" y="0px"
	 viewBox="0 0 283.5 283.5" style="enable-background:new 0 0 283.5 283.5;" xml:space="preserve">
<style type="text/css">
	.st0{fill:none;stroke:#D82117;stroke-miterlimit:10;}
	.st1{fill:#16566F;stroke:#16566F;stroke-miterlimit:10;}
	.st2{fill:#16566F;}
	.st3{fill:none;stroke:#16566F;stroke-miterlimit:10;}
	.st4{fill:#474747;}
	.st5{display:none;}
</style>
<g id="圖層_1">
</g>
<g id="圖層_4">
	<g>
		<g>
			<circle class="st2" cx="199.8" cy="132.7" r="2.9"/>
		</g>
		<g>
			<g>
				<g>
					<path class="st2" d="M148.4,140.2c0,16.4-3.7,32-10.2,46L40,176.7l-27.2-2.6c0,0,0,0,0,0c-0.6-0.1-1.1-0.5-1.6-1.1
						c-2.9-8.1-4.7-18.7-4.7-30.2c0-9.8,1.3-18.9,3.5-26.5c0.8-1.3,1.7-2.5,2.4-2.5c0.1,0,0.1,0,0.2,0c0,0,0,0,0,0l27.4-5.2
						l96.5-18.1C144.1,105.5,148.4,122.3,148.4,140.2z"/>
					<path class="st2" d="M138.5,186.7l-0.4,0L12.6,174.6l-0.1-0.1c-0.6-0.1-1.2-0.5-1.8-1.2l-0.1-0.2c-3.1-8.5-4.7-19.2-4.7-30.3
						c0-9.6,1.2-18.8,3.5-26.6l0-0.1c1.1-1.8,2-2.7,2.8-2.7h0c0.1,0,0.1,0,0.1,0L136.7,90l0.2,0.3c8,15.6,12,32.3,12,49.8
						c0,16.1-3.5,31.7-10.3,46.2L138.5,186.7z M12.9,173.6l124.9,12.1c6.7-14.3,10-29.6,10-45.5c0-17.2-4-33.7-11.7-49L12.7,114.3
						l-0.1,0.1l-0.2,0c-0.1,0-0.1,0-0.2,0c-0.1,0-0.7,0.1-1.9,2.2c-2.3,7.7-3.5,16.8-3.5,26.3c0,10.9,1.7,21.5,4.7,29.9
						c0.4,0.5,0.9,0.7,1.3,0.8L12.9,173.6z"/>
				</g>
				<g>
					<line class="st2" x1="232.7" y1="136.2" x2="232.7" y2="136.2"/>
					<polygon class="st2" points="232.7,136.7 232.6,135.7 232.8,136.7 					"/>
				</g>
				<g>
					<path class="st1" d="M227.4,129.9l-36.5-21.8c0,0-0.9-0.8-10-6.4c-9.5-5.8-22.9-7.8-28.9-8.2c-2.2-0.1-5.9,0-9.8,0.3
						c7.3,14.3,11.3,30.5,11.3,47.5c0,15.2-3.3,29.7-9.1,42.9c56.9,1.2,86.5-37.4,86.5-37.4s2.8-2.2,0.8-4.1
						c-0.1-0.1-18.4,2.5-18.4,2.5c3.1-4.7,7.8-6.9,11.8-7.9c3.9-1,7-0.9,7.6-1.2c0.1,0,0.1-0.1,0.1-0.1
						C232.9,133.5,227.4,129.9,227.4,129.9z M200.8,137.8c-3.3-0.1-5.9-2.9-5.8-6.2c0.1-3.3,2.9-5.9,6.2-5.8
						c3.3,0.1,5.9,2.9,5.8,6.2C206.9,135.3,204.1,137.9,200.8,137.8z"/>
				</g>
			</g>
			<g>
				<path class="st2" d="M276.3,146.3c-0.9,1.6-2,2.7-2.7,2.4c-0.1,0-0.2-0.1-0.2-0.2c-0.3-0.6-0.1-1.9,0.6-3.4
					c0.7-1.4,1.7-2.4,2.4-2.4c0.1,0,0.2,0,0.3,0.1C277.4,143.1,277.2,144.7,276.3,146.3z"/>
				<path class="st2" d="M273.9,149.3c-0.2,0-0.4-0.1-0.5-0.1c-0.2-0.1-0.3-0.2-0.4-0.4c-0.6-0.9,0-2.6,0.6-3.9
					c0.6-1.2,1.7-2.7,2.8-2.7c0.2,0,0.4,0,0.6,0.1c0.2,0.1,0.4,0.3,0.5,0.7c0.3,0.8,0,2.2-0.7,3.5l0,0c-0.7,1.4-1.7,2.4-2.5,2.7
					C274.2,149.3,274,149.3,273.9,149.3z M276.5,143.2c-0.4,0-1.3,0.7-2,2.2c-0.7,1.4-0.8,2.6-0.6,2.9c0.2,0.1,1.2-0.6,2-2.2
					C276.8,144.4,276.7,143.3,276.5,143.2z"/>
			</g>
			<g>
				<path class="st2" d="M273.4,149.2l-17.8-9c-0.4-0.2-0.8-0.3-1.2-0.2l-22.7,3.4l-0.1-1l22.7-3.4c0.6-0.1,1.3,0,1.8,0.3l17.8,9
					L273.4,149.2z"/>
			</g>
			<g>
				<path class="st2" d="M276.5,143.2l-17.9-9.5c-0.4-0.2-0.9-0.3-1.3-0.2l-24.5,3.2l-0.1-1l24.5-3.2c0.7-0.1,1.4,0,1.9,0.3
					l17.9,9.5L276.5,143.2z"/>
			</g>
		</g>
	</g>
</g>
<g id="圖層_3" class="st5">
</g>
</svg>
