<?xml version="1.0" encoding="utf-8"?>
<!-- Generator: Adobe Illustrator 22.0.1, SVG Export Plug-In . SVG Version: 6.00 Build 0)  -->
<svg version="1.1" xmlns="http://www.w3.org/2000/svg" xmlns:xlink="http://www.w3.org/1999/xlink" x="0px" y="0px"
	 viewBox="0 0 283.5 283.5" style="enable-background:new 0 0 283.5 283.5;" xml:space="preserve">
<style type="text/css">
	.st0{fill:none;stroke:#D82117;stroke-miterlimit:10;}
	.st1{fill:#16566F;stroke:#16566F;stroke-miterlimit:10;}
	.st2{fill:#16566F;}
	.st3{fill:none;stroke:#16566F;stroke-miterlimit:10;}
	.st4{fill:#474747;}
	.st5{display:none;}
</style>
<g id="圖層_1">
</g>
<g id="圖層_4">
	<g>
		<path class="st2" d="M63.7,182.1H46c-3.6,0-6.5,2.9-6.5,6.5v0c0,3.6,2.9,6.5,6.5,6.5h15.8c1.6,0,2.9,0.4,3.7,1.1
			c0.8,0.7,1.2,1.7,1.2,2.9c0,1.2-0.4,2.2-1.2,2.9s-2,1.1-3.7,1.1H46c-3.6,0-6.5,2.9-6.5,6.5v2.1c0,3.6,2.9,6.5,6.5,6.5h18.5
			c1.7,0,3,0.4,3.8,1.2c0.9,0.8,1.3,1.8,1.3,3.1c0,1.3-0.4,2.3-1.3,3.1c-0.9,0.8-2.1,1.2-3.8,1.2H35.3c-2.3,0-4-0.5-5-1.6
			c-1-1-1.5-2.7-1.5-5v-39.9c0-1.5,0.2-2.8,0.7-3.8c0.5-1,1.2-1.7,2.2-2.1c1-0.4,2.2-0.7,3.7-0.7h28.4c1.7,0,3,0.4,3.8,1.1
			c0.8,0.8,1.2,1.8,1.2,3c0,1.3-0.4,2.3-1.2,3C66.7,181.7,65.4,182.1,63.7,182.1z"/>
	</g>
	<g>
		<path class="st2" d="M83.9,174.3H108c2.3,0,4,0.4,5,1.1c1,0.7,1.6,1.9,1.6,3.6c0,1-0.6,2.4-1.8,4c-1.2,1.7-2.6,3.5-4.2,5.5
			c-1.6,2-3.2,4.5-4.8,7.5c-1.7,3-3.2,6.6-4.5,11c-0.6,1.9-1,3.5-1.2,4.7c-0.2,1.3-0.5,2.9-0.8,4.9c-0.3,2-0.5,3.5-0.8,4.6
			c-0.5,2.5-1.2,4.2-2.2,5.1c-0.9,1-2.2,1.4-3.7,1.4c-1.5,0-2.7-0.5-3.5-1.5c-0.9-1-1.3-2.5-1.3-4.5c0-1.5,0.3-3.6,1-6.3
			c0.7-2.7,1.7-5.8,3.2-9.5c1.5-3.7,3.3-7.5,5.5-11.4c1-1.7,2.1-3.5,3.2-5.2c1.8-2.7-0.1-6.4-3.4-6.4H83.9c-2,0-3.5-0.4-4.5-1.1
			c-1-0.7-1.5-1.9-1.5-3.5c0-1.7,0.5-2.7,1.6-3.2C80.5,174.6,82,174.3,83.9,174.3z"/>
	</g>
	<g>
		<path class="st2" d="M142.8,206.2h-5.4c-2.4,0-4.4,2-4.4,4.4v10.6c0,2.1-0.5,3.8-1.5,4.9c-1,1.1-2.3,1.7-3.8,1.7
			c-1.6,0-2.9-0.5-3.9-1.6c-1-1.1-1.5-2.7-1.5-4.8v-40.9c0-2.4,0.5-4.1,1.6-5.1c1.1-1,2.8-1.5,5.2-1.5h13.8c4.1,0,7.2,0.3,9.4,0.9
			c2.2,0.6,4,1.6,5.6,3c1.6,1.4,2.8,3.1,3.6,5.1c0.8,2,1.2,4.3,1.2,6.8c0,5.4-1.7,9.5-5,12.3C154.3,204.8,149.3,206.2,142.8,206.2z
			 M140.2,181.9h-2.6c-2.6,0-4.6,2.1-4.6,4.6v7.2c0,2.4,2,4.4,4.4,4.4h2.8c2.5,0,4.6-0.3,6.3-0.8c1.7-0.5,3-1.4,3.9-2.6
			c0.9-1.2,1.3-2.8,1.3-4.7c0-2.3-0.7-4.2-2.1-5.7C148.1,182.7,145,181.9,140.2,181.9z"/>
	</g>
	<g>
		<path class="st2" d="M185.6,179.4l18.5,28.1c0.6,1,2.1,0.5,2.1-0.6v-27.7c0-2,0.4-3.6,1.3-4.6c0.9-1,2.1-1.5,3.6-1.5
			c1.5,0,2.8,0.5,3.7,1.5c0.9,1,1.3,2.6,1.3,4.6v41.7c0,4.7-1.9,7-5.8,7c-1,0-1.8-0.1-2.6-0.4c-0.8-0.3-1.5-0.7-2.2-1.3
			c-0.7-0.6-1.3-1.3-1.9-2.1c-0.6-0.8-1.2-1.6-1.7-2.5l-16.5-25.3c-1.1-1.6-3.6-0.9-3.6,1.1v24.4c0,2-0.5,3.6-1.4,4.6
			s-2.1,1.6-3.6,1.6c-1.5,0-2.7-0.5-3.7-1.6c-0.9-1-1.4-2.6-1.4-4.6v-40.9c0-1.7,0.2-3.1,0.6-4.1c0.5-1.1,1.2-2,2.3-2.7
			c1.1-0.7,2.2-1,3.4-1c1,0,1.8,0.2,2.5,0.5c0.7,0.3,1.3,0.7,1.8,1.3c0.5,0.5,1,1.2,1.6,2.1C184.4,177.6,185,178.4,185.6,179.4z"/>
	</g>
	<g>
		<g>
			<circle class="st2" cx="201.2" cy="103.4" r="2.9"/>
		</g>
		<g>
			<g>
				<g>
					<path class="st2" d="M150.3,110.8c0,16.3-3.6,31.7-10.1,45.6L42.9,147l-27-2.6c0,0,0,0,0,0c-0.6-0.1-1.1-0.5-1.6-1
						c-2.9-8.1-4.7-18.5-4.7-29.9c0-9.7,1.3-18.8,3.5-26.2c0.8-1.3,1.7-2.4,2.4-2.5c0.1,0,0.1,0,0.2,0c0,0,0,0,0,0l27.1-5.1l95.7-18
						C146,76.5,150.3,93.1,150.3,110.8z"/>
					<path class="st2" d="M140.5,156.9l-0.4,0l-124.4-12l-0.1-0.1c-0.6-0.1-1.2-0.5-1.8-1.2l-0.1-0.2c-3-8.4-4.7-19.1-4.7-30.1
						c0-9.5,1.2-18.6,3.5-26.4l0-0.1c1.1-1.8,2-2.7,2.8-2.7h0c0.1,0,0.1,0,0.1,0l123.2-23.2l0.2,0.3c7.9,15.4,11.9,32,11.9,49.3
						c0,16-3.4,31.4-10.2,45.8L140.5,156.9z M16.1,143.9l123.8,11.9c6.6-14.2,9.9-29.4,9.9-45.1c0-17-3.9-33.4-11.6-48.6l-122.3,23
						l-0.1,0.1l-0.2,0c-0.1,0-0.1,0-0.2,0c-0.1,0-0.7,0.1-1.9,2.2c-2.3,7.7-3.4,16.7-3.4,26c0,10.8,1.6,21.3,4.6,29.6
						c0.4,0.5,0.9,0.7,1.3,0.8L16.1,143.9z"/>
				</g>
				<g>
					<line class="st2" x1="233.9" y1="106.9" x2="233.9" y2="106.9"/>
					<polygon class="st2" points="233.9,107.4 233.8,106.4 233.9,107.4 					"/>
				</g>
				<g>
					<path class="st1" d="M228.6,100.6L192.5,79c0,0-0.9-0.8-9.9-6.3c-9.4-5.7-22.7-7.7-28.7-8.1c-2.2-0.1-5.9,0-9.7,0.3
						c7.2,14.2,11.2,30.2,11.2,47.1c0,15.1-3.2,29.5-9,42.5c56.4,1.2,85.8-37.1,85.8-37.1s2.8-2.2,0.8-4c-0.1-0.1-18.2,2.5-18.2,2.5
						c3.1-4.7,7.7-6.8,11.7-7.9c3.9-1,6.9-0.9,7.5-1.2c0.1,0,0.1-0.1,0.1-0.1C234.1,104.2,228.6,100.6,228.6,100.6z M202.3,108.4
						c-3.3-0.1-5.9-2.9-5.7-6.2c0.1-3.3,2.9-5.9,6.2-5.7c3.3,0.1,5.9,2.9,5.7,6.2C208.3,106,205.6,108.5,202.3,108.4z"/>
				</g>
			</g>
			<g>
				<path class="st2" d="M277.1,116.9c-0.8,1.6-2,2.7-2.6,2.4c-0.1,0-0.2-0.1-0.2-0.2c-0.3-0.6-0.1-1.9,0.6-3.3
					c0.7-1.4,1.7-2.4,2.4-2.4c0.1,0,0.2,0,0.3,0.1C278.1,113.7,278,115.3,277.1,116.9z"/>
				<path class="st2" d="M274.7,119.8c-0.2,0-0.4-0.1-0.5-0.1c-0.2-0.1-0.3-0.2-0.4-0.4c-0.6-0.9,0-2.6,0.6-3.8
					c0.6-1.2,1.7-2.6,2.8-2.7c0.2,0,0.4,0,0.5,0.1c0.2,0.1,0.4,0.3,0.5,0.7c0.3,0.8,0,2.1-0.7,3.5c-0.7,1.4-1.6,2.4-2.4,2.6
					C275,119.8,274.8,119.8,274.7,119.8z M277.3,113.8c-0.4,0-1.2,0.7-2,2.2c-0.7,1.4-0.8,2.5-0.6,2.8c0.2,0.1,1.1-0.5,2-2.1l0,0
					C277.5,115.1,277.5,114,277.3,113.8z"/>
			</g>
			<g>
				<path class="st2" d="M274.2,119.7l-17.6-9c-0.4-0.2-0.8-0.3-1.2-0.2l-22.5,3.4l-0.1-1l22.5-3.4c0.6-0.1,1.2,0,1.8,0.3l17.6,9
					L274.2,119.7z"/>
			</g>
			<g>
				<path class="st2" d="M277.3,113.8l-17.7-9.4c-0.4-0.2-0.9-0.3-1.3-0.2l-24.3,3.2l-0.1-1l24.3-3.2c0.7-0.1,1.3,0,1.9,0.3
					l17.7,9.4L277.3,113.8z"/>
			</g>
		</g>
	</g>
</g>
<g id="圖層_3" class="st5">
</g>
</svg>
